<?xml version="1.0" encoding="UTF-8"?><svg id="Layer_2" xmlns="http://www.w3.org/2000/svg" viewBox="0 0 1007.82 162.12"><defs><style>.cls-1{fill:#13fcae;}.cls-2{fill:#1cdaff;}</style></defs><g id="Text_Path"><g><polygon class="cls-2" points="135.61 107.01 90.22 44.62 69.11 51.54 68.58 128.42 23.65 66.45 0 74.2 64.68 162.12 89.03 154.13 89.48 80.02 133.22 139.64 157.43 131.71 157.51 22.56 135.69 29.71 135.61 107.01"/><path class="cls-2" d="M284.82,52.33c-2.82-6.52-6.79-12.19-11.93-17.03-5.13-4.84-11.13-8.57-17.99-11.19-6.87-2.61-14.4-3.92-22.59-3.92s-15.73,1.33-22.59,4c-6.87,2.66-12.87,6.42-18,11.25-5.14,4.84-9.11,10.5-11.92,16.97-2.82,6.46-4.23,13.6-4.23,21.4s1.41,14.81,4.23,21.33c2.81,6.52,6.78,12.2,11.92,17.04,5.13,4.83,11.16,8.59,18.07,11.25,6.91,2.67,14.47,4,22.66,4s15.58-1.31,22.45-3.92c3.16-1.21,6.15-2.66,8.94-4.34l-19.65-9.53c-.37-.18-.79-.21-1.18-.07l-18.43,6.39c-.92,.32-1.9-.27-2.05-1.23l-10.07-66.6c-.11-1.13,1-1.99,2.07-1.59l61.77,26.85c.89,.39,1.21,1.49,.67,2.29l-10.92,16.17c-.23,.34-.31,.76-.23,1.17l4.23,21.79c.98-.79,1.92-1.62,2.84-2.49,5.14-4.83,9.11-10.54,11.93-17.1,2.81-6.57,4.22-13.71,4.22-21.41s-1.41-14.96-4.22-21.48Z"/><path class="cls-2" d="M375.99,92.26c6.71-2.91,11.9-7.16,15.55-12.74,3.65-5.58,5.48-12.27,5.48-20.07s-1.83-14.37-5.48-20c-3.65-5.63-8.84-9.95-15.55-12.96-6.72-3.01-14.72-4.52-24-4.52h-44.88V125.66h24.14v-29.03h20.74c.36,0,.7-.02,1.05-.02l20.13,29.05h25.77l-23.11-33.35s.1-.04,.15-.06Zm-8.74-46.07c3.75,3.11,5.63,7.53,5.63,13.26s-1.88,10.17-5.63,13.33c-3.75,3.16-9.28,4.74-16.59,4.74h-19.4V41.52h19.4c7.31,0,12.84,1.56,16.59,4.67Z"/><path class="cls-1" d="M549,49.82c2.96-2.96,6.47-5.26,10.52-6.89,4.05-1.63,8.49-2.45,13.33-2.45,5.13,0,9.9,1.04,14.29,3.11,4.39,2.08,8.32,5.14,11.78,9.19l15.55-14.22c-4.94-6.02-11.06-10.59-18.37-13.7-7.31-3.11-15.46-4.67-24.44-4.67-8,0-15.43,1.31-22.29,3.93-6.87,2.62-12.84,6.35-17.92,11.18-5.09,4.84-9.03,10.52-11.85,17.03-2.81,6.52-4.22,13.68-4.22,21.48s1.41,14.96,4.22,21.48c2.82,6.52,6.74,12.2,11.78,17.03,5.04,4.84,10.99,8.57,17.85,11.18,6.86,2.61,14.29,3.92,22.29,3.92,9.09,0,17.28-1.58,24.59-4.74,7.31-3.16,13.43-7.75,18.37-13.78l-15.55-14.22c-3.46,4.05-7.38,7.13-11.78,9.26s-9.16,3.18-14.29,3.18c-4.84,0-9.28-.82-13.33-2.45-4.05-1.63-7.55-3.93-10.52-6.89s-5.26-6.47-6.89-10.52c-1.63-4.05-2.45-8.54-2.45-13.48s.81-9.43,2.45-13.48c1.63-4.05,3.92-7.55,6.89-10.52Z"/><polygon class="cls-1" points="654.62 21.97 630.47 21.97 630.47 125.66 706.31 125.66 706.31 106.11 654.62 106.11 654.62 21.97"/><rect class="cls-1" x="719.94" y="21.97" width="24.15" height="103.69"/><path class="cls-1" d="M795.63,49.82c2.96-2.96,6.47-5.26,10.52-6.89,4.05-1.63,8.49-2.45,13.33-2.45,5.14,0,9.9,1.04,14.29,3.11,4.39,2.08,8.32,5.14,11.78,9.19l15.55-14.22c-4.94-6.02-11.06-10.59-18.37-13.7-7.31-3.11-15.46-4.67-24.44-4.67-8,0-15.43,1.31-22.29,3.93-6.86,2.62-12.84,6.35-17.92,11.18-5.09,4.84-9.04,10.52-11.85,17.03-2.81,6.52-4.22,13.68-4.22,21.48s1.41,14.96,4.22,21.48c2.81,6.52,6.74,12.2,11.78,17.03,5.04,4.84,10.99,8.57,17.85,11.18,6.86,2.61,14.3,3.92,22.3,3.92,9.08,0,17.28-1.58,24.59-4.74,7.31-3.16,13.43-7.75,18.37-13.78l-15.55-14.22c-3.46,4.05-7.38,7.13-11.78,9.26s-9.16,3.18-14.29,3.18c-4.84,0-9.28-.82-13.33-2.45-4.05-1.63-7.56-3.93-10.52-6.89-2.96-2.96-5.26-6.47-6.89-10.52-1.63-4.05-2.44-8.54-2.44-13.48s.81-9.43,2.44-13.48c1.63-4.05,3.93-7.55,6.89-10.52Z"/><polygon class="cls-1" points="914.55 121.79 934.26 141.49 943.51 69.59 1007.82 67.93 988.11 48.23 920.23 49.78 954.95 15.07 940.32 0 866.74 73.53 881.64 88.38 900.01 70 920.4 69.83 914.55 121.79"/></g><polygon class="cls-2" points="483.37 125.66 510.95 125.66 467.45 68.93 510.95 21.97 483.37 21.97 436.98 71.38 436.99 21.97 415.99 21.97 415.99 125.66 436.99 125.66 436.99 99.97 451.28 85.43 483.37 125.66"/></g></svg>